<svg xmlns="http://www.w3.org/2000/svg" enable-background="new 0 0 50 50"><path  d="M32.8957 0 C30.0184 0 27.3133 1.68608 25.3194 4.67897 L21.8357 9.71092 L18.4043 4.75407 C16.3705 1.68608 13.6604 0 10.7806 0 C7.90076 0 5.19314 1.69359 3.1618 4.75407 C1.12298 7.8183 0 11.8889 0 16.2262 C0 20.5521 1.12048 24.6303 3.15931 27.6908 C5.19065 30.755 7.89827 32.4448 10.7806 32.4448 C13.6579 32.4448 16.368 30.7588 18.3569 27.7584 L21.8381 22.7339 L25.272 27.6908 C27.3058 30.755 30.0159 32.4448 32.8957 32.4448 C35.7755 32.4448 38.4807 30.7588 40.5145 27.6908 C42.5533 24.634 43.6763 20.5559 43.6763 16.2187 C43.6763 11.8814 42.5558 7.81455 40.517 4.74656 C38.4782 1.68608 35.773 0 32.8957 0 Z M13.9898 21.0478 C12.2754 23.6314 9.28826 23.6314 7.57136 21.0478 C6.7129 19.756 6.24125 18.0399 6.24125 16.2224 C6.24125 14.3974 6.7129 12.6888 7.57635 11.3895 C8.42981 10.0977 9.57025 9.38797 10.7806 9.38797 C11.9909 9.38797 13.1313 10.0977 14.0372 11.4571 L17.3338 16.2262 L13.9898 21.0478 Z M36.1024 21.0478 C34.388 23.6352 31.4458 23.6952 29.6391 20.9802 L26.3425 16.2112 L29.684 11.3857 C31.4009 8.80216 34.3905 8.80216 36.1049 11.3782 C36.9634 12.6775 37.435 14.3861 37.435 16.2112 C37.435 18.0362 36.9609 19.756 36.1024 21.0478 Z" transform="translate(2.57371, 6.80517)"/></svg>